<svg width="100" height="100" viewBox="0 0 100 100" fill="none" xmlns="http://www.w3.org/2000/svg">
<path fill-rule="evenodd" clip-rule="evenodd" d="M50.3671 100C22.5954 100 0 77.3154 0 49.4344C0 25.7821 16.0252 5.5248 38.9696 0.178433C41.1228 -0.272592 43.3666 0.139198 45.2204 1.32557C47.0741 2.51195 48.3904 4.37854 48.887 6.52541C49.3837 8.67228 49.0214 10.9287 47.8776 12.8111C46.7338 14.6935 44.8996 16.0523 42.7679 16.5962C27.714 20.1044 16.789 33.916 16.789 49.4344C16.789 68.0217 31.8535 83.1457 50.3671 83.1457C66.4789 83.1457 80.3568 71.6193 83.3571 55.738C83.5607 54.6516 83.9762 53.6162 84.5798 52.6909C85.1834 51.7657 85.9632 50.9688 86.8746 50.3459C87.786 49.723 88.8111 49.2863 89.8912 49.0608C90.9713 48.8354 92.0852 48.8256 93.1691 49.032C95.3583 49.4514 97.2918 50.7242 98.5449 52.5708C99.798 54.4174 100.268 56.6869 99.8522 58.8806C95.3452 82.7065 74.5374 100 50.3671 100Z" fill="#1a237e"/>
<path fill-rule="evenodd" clip-rule="evenodd" d="M92.1548 21.6632C84.9087 23.9941 79.3955 29.6693 77.1311 37.1293C77.06 37.3805 76.9115 37.6011 76.7079 37.7581C76.5043 37.9151 76.2566 38 76.0021 38C75.7475 38 75.4998 37.9151 75.2962 37.7581C75.0926 37.6011 74.9441 37.3805 74.873 37.1293C72.6086 29.6693 67.0975 23.9941 59.8493 21.6632C59.6043 21.5901 59.3891 21.4373 59.236 21.2277C59.0828 21.0181 59 20.7632 59 20.5011C59 20.239 59.0828 19.984 59.236 19.7745C59.3891 19.5649 59.6043 19.4121 59.8493 19.339C67.0975 17.0037 72.6086 11.3328 74.873 3.87067C74.9441 3.61954 75.0926 3.39889 75.2962 3.24188C75.4998 3.08488 75.7475 3 76.0021 3C76.2566 3 76.5043 3.08488 76.7079 3.24188C76.9115 3.39889 77.06 3.61954 77.1311 3.87067C79.3955 11.3328 84.9087 17.0059 92.1548 19.3368C93.2817 19.7016 93.2817 21.2984 92.1548 21.6632Z" fill="#e7a28f"/>
</svg>
